<svg style="display:none;" xmlns="http://www.w3.org/2000/svg" xmlns:xlink="http://www.w3.org/1999/xlink">

	<symbol id="svg_hero-arrow" viewBox="0 0 31.49 31.49">
		<path d="M21.205,5.007c-0.429-0.444-1.143-0.444-1.587,0c-0.429,0.429-0.429,1.143,0,1.571l8.047,8.047H1.111
		C0.492,14.626,0,15.118,0,15.737c0,0.619,0.492,1.127,1.111,1.127h26.554l-8.047,8.032c-0.429,0.444-0.429,1.159,0,1.587
		c0.444,0.444,1.159,0.444,1.587,0l9.952-9.952c0.444-0.429,0.444-1.143,0-1.571L21.205,5.007z"/>
	</symbol>


	<symbol id="svg_slider-arrow" viewBox="0 0 252.1 477.2">
		<path d="M248.2,229.1L23.1,4C17.8-1.3,9.3-1.3,4,4s-5.3,13.8,0,19.1l215.5,215.5L4,454.1c-5.3,5.3-5.3,13.8,0,19.1
		c2.6,2.6,6.1,4,9.5,4c3.4,0,6.9-1.3,9.5-4l225.1-225.1C253.4,242.9,253.4,234.3,248.2,229.1z"/>
	</symbol>


	<symbol id="svg_" viewBox="0 0 252.1 477.2">
		<path d=""/>
	</symbol>


	<symbol id="svg_" viewBox="0 0 252.1 477.2">
		<path d=""/>
	</symbol>


</svg>



